<svg width="300" height="300" viewBox="0 0 300 300" fill="none" xmlns="http://www.w3.org/2000/svg">
<rect x="29.5" y="20.5" width="240" height="259" rx="44.5" fill="black" stroke="white" stroke-width="5"/>
<g filter="url(#filter0_d_135_23)">
<rect x="32" y="23" width="235" height="254" rx="42" fill="black"/>
<path d="M70.5 154V84.38H74.04V154H70.5ZM88.2 154V84.38H91.74V154H88.2ZM98.82 154V84.38H105.9V154H98.82ZM109.449 154V84.38H112.989V154H109.449ZM120.069 154V84.38H127.149V154H120.069ZM130.689 154V84.38H134.229V154H130.689ZM148.398 154V84.38H151.938V154H148.398ZM155.478 154V84.38H162.558V154H155.478ZM169.638 154V84.38H173.178V154H169.638ZM187.348 154V84.38H194.428V154H187.348ZM208.588 154V84.38H212.128V154H208.588ZM215.668 154V84.38H219.208V154H215.668Z" fill="white"/>
<path d="M71.0278 198.751C71.0278 193.612 72.6488 189.422 75.8907 186.18C79.1326 182.938 83.1086 181.318 87.8186 181.318C92.345 181.318 95.9845 183.244 98.7371 187.098V168.38H105.986V216H98.7371V210.862C96.168 214.654 92.3144 216.551 87.1763 216.551C82.711 216.551 78.888 214.899 75.7072 211.596C72.5876 208.232 71.0278 203.95 71.0278 198.751ZM88.7361 210.128C91.611 210.128 94.0271 209.088 95.9845 207.008C97.9419 204.929 98.9206 202.268 98.9206 199.026C98.9206 195.845 97.9113 193.154 95.8928 190.952C93.9354 188.749 91.5192 187.648 88.6443 187.648C85.7694 187.648 83.2921 188.749 81.2124 190.952C79.1938 193.092 78.1845 195.784 78.1845 199.026C78.1845 202.268 79.2244 204.929 81.3041 207.008C83.3838 209.088 85.8612 210.128 88.7361 210.128ZM147.902 181.868V211.596C147.902 217.468 146.312 221.964 143.131 225.084C139.95 228.203 135.699 229.763 130.377 229.763C125.362 229.763 120.713 228.142 116.431 224.9L119.826 219.487C123.251 221.995 126.646 223.248 130.01 223.248C137.351 223.248 141.021 219.578 141.021 212.238V207.834C139.981 209.853 138.452 211.474 136.433 212.697C134.415 213.859 132.182 214.44 129.735 214.44C125.209 214.44 121.477 212.88 118.541 209.761C115.666 206.58 114.229 202.635 114.229 197.925C114.229 193.154 115.666 189.208 118.541 186.089C121.477 182.908 125.209 181.318 129.735 181.318C134.262 181.318 137.932 183.183 140.745 186.914V181.868H147.902ZM130.928 207.926C133.803 207.926 136.158 206.947 137.993 204.99C139.828 202.971 140.745 200.494 140.745 197.558C140.745 194.56 139.797 192.083 137.901 190.126C136.066 188.107 133.711 187.098 130.836 187.098C127.961 187.098 125.637 188.138 123.863 190.218C122.15 192.236 121.294 194.683 121.294 197.558C121.294 200.494 122.181 202.971 123.955 204.99C125.729 206.947 128.053 207.926 130.928 207.926ZM190.065 202.054H163.273C163.457 204.5 164.589 206.488 166.668 208.018C168.748 209.547 171.164 210.311 173.917 210.311C178.26 210.311 181.502 208.966 183.642 206.274L187.771 210.77C184.101 214.624 179.3 216.551 173.366 216.551C168.473 216.551 164.374 214.93 161.071 211.688C157.768 208.446 156.117 204.164 156.117 198.842C156.117 193.643 157.799 189.422 161.163 186.18C164.527 182.938 168.595 181.318 173.366 181.318C178.137 181.318 182.113 182.755 185.294 185.63C188.475 188.505 190.065 192.328 190.065 197.099V202.054ZM182.908 196.365C182.908 193.612 182.022 191.441 180.248 189.851C178.535 188.26 176.302 187.465 173.55 187.465C170.797 187.465 168.381 188.291 166.301 189.942C164.283 191.594 163.273 193.735 163.273 196.365H182.908ZM205.195 216H198.038V181.868H205.195V188.015C206.357 185.936 207.948 184.315 209.966 183.153C212.046 181.929 214.248 181.318 216.573 181.318C220.548 181.318 223.699 182.51 226.023 184.896C228.347 187.281 229.51 190.676 229.51 195.08V216H222.261V197.282C222.261 190.982 219.662 187.832 214.462 187.832C211.832 187.832 209.63 188.688 207.856 190.401C206.082 192.053 205.195 194.408 205.195 197.466V216Z" fill="white"/>
<rect x="98.72" y="152" width="7.26" height="17" fill="white"/>
</g>
<defs>
<filter id="filter0_d_135_23" x="25.8" y="18.8" width="249.4" height="268.4" filterUnits="userSpaceOnUse" color-interpolation-filters="sRGB">
<feFlood flood-opacity="0" result="BackgroundImageFix"/>
<feColorMatrix in="SourceAlpha" type="matrix" values="0 0 0 0 0 0 0 0 0 0 0 0 0 0 0 0 0 0 127 0" result="hardAlpha"/>
<feOffset dx="1" dy="3"/>
<feGaussianBlur stdDeviation="3.6"/>
<feComposite in2="hardAlpha" operator="out"/>
<feColorMatrix type="matrix" values="0 0 0 0 0 0 0 0 0 0 0 0 0 0 0 0 0 0 0.5 0"/>
<feBlend mode="normal" in2="BackgroundImageFix" result="effect1_dropShadow_135_23"/>
<feBlend mode="normal" in="SourceGraphic" in2="effect1_dropShadow_135_23" result="shape"/>
</filter>
</defs>
</svg>
